<svg xmlns="http://www.w3.org/2000/svg" width="60" height="60" viewBox="0 0 60 60" fill="none"><path d="M41.4638 19.9641C47.2037 27.1227 45.5292 36.3931 39.7423 42.4019C37.1168 45.1286 33.5277 47.0008 29.565 46.9999C28.0535 46.9999 26.5224 46.7225 25.0639 46.1733C23.5648 45.6096 22.6828 45.5109 21.3262 44.6277C19.9474 43.7293 18.1826 42.2368 17.2785 40.7981C16.7578 39.9697 16.3221 39.091 15.9794 38.1827C15.2958 36.3742 14.9841 34.4652 14.9788 32.5876C14.969 28.6583 16.2433 24.8708 18.2623 21.7197C18.9778 20.6041 19.7942 19.5593 20.7081 18.6107C24.1926 14.991 27.7046 12.5812 32.1738 13.6322C35.1243 14.326 39.1809 17.1181 41.4638 19.9641Z" fill="url(#paint0_radial_1014_833)"></path><path d="M41.1511 25.2136C42.5866 34.5558 37.2221 42.1425 30.0157 44.73C22.8093 47.3175 15.672 43.381 14.2366 34.038C12.8012 24.6958 18.0727 16.2879 25.2791 13.6994C32.4854 11.1119 39.7166 15.8705 41.1511 25.2136Z" fill="url(#paint1_radial_1014_833)"></path><path d="M28.1871 40.6834C25.0107 41.8116 21.8981 41.484 19.6445 39.7859C17.7858 38.3858 16.6231 36.1842 16.1901 33.243C15.038 25.4122 20.12 19.0767 25.4871 17.0914L25.6341 17.0375C28.5626 15.9982 31.5485 16.3895 33.8323 18.1101C35.9133 19.6771 37.2584 22.1749 37.7233 25.3341C38.8567 33.0375 33.6676 38.6577 28.366 40.6188L28.188 40.6834H28.1871Z" fill="url(#paint2_linear_1014_833)"></path><path d="M28.6414 40.5494C25.6554 41.621 22.7359 41.3024 20.631 39.6734C18.9414 38.3666 17.8691 36.3023 17.444 33.5371C16.2769 25.9406 21.0684 19.8124 26.1699 17.9043L26.316 17.8504C29.0479 16.8694 31.8399 17.2545 33.9758 18.9068C35.8965 20.3931 37.1548 22.7616 37.6153 25.7584C38.7567 33.188 33.8545 38.6 28.8176 40.4847L28.6414 40.5494Z" fill="url(#paint3_radial_1014_833)"></path><path d="M29.7076 20.4436L29.1179 20.0532L28.7619 22.6201L29.3516 23.0096L29.7076 20.4436Z" fill="url(#paint4_linear_1014_833)"></path><path d="M25.064 26.6986C25.0817 27.4193 25.605 27.6867 26.1355 28.0368C26.0584 27.9856 25.9929 27.9308 25.9398 27.8716C25.4341 27.3098 25.6493 26.2875 26.0274 25.7212C26.4418 25.101 27.1503 24.7115 27.8578 24.5445C27.8906 24.5374 27.9224 24.5302 27.9649 24.5212C27.9888 24.5167 28.0119 24.5113 28.0358 24.5068C27.7931 24.3462 27.5806 24.1281 27.3008 24.1505C26.7155 24.1972 26.0549 24.5768 25.6706 25.0166C25.2721 25.4726 25.0507 26.0838 25.0631 26.6986H25.064Z" fill="url(#paint5_linear_1014_833)"></path><path d="M26.1053 29.8844C26.2629 29.9167 26.4551 29.9509 26.6853 29.9796C26.8004 29.9939 26.9067 30.0083 27.0041 30.0209C27.1015 30.0334 27.19 30.046 27.2689 30.0559L26.6791 29.6663C26.5206 29.6457 26.3249 29.6188 26.0955 29.5901C25.8653 29.5613 25.6732 29.5272 25.5155 29.4949C24.8957 29.3908 24.4042 29.2176 24.0394 28.9771L24.6291 29.3666C24.994 29.608 25.4854 29.7812 26.1053 29.8844Z" fill="url(#paint6_linear_1014_833)"></path><path d="M32.1012 22.9834L31.8399 24.8628L31.693 24.8789C31.2732 24.6232 30.803 24.4077 30.2859 24.2345C29.7687 24.0613 29.1984 23.9823 28.5724 23.9967L28.0092 28.0795L28.5989 28.469L29.1621 24.3862C29.7882 24.3718 30.3585 24.4508 30.8756 24.624C31.3928 24.7973 31.863 25.0127 32.2827 25.2685L32.4297 25.2523L32.6909 23.3729L32.1012 22.9834Z" fill="url(#paint7_linear_1014_833)"></path><path d="M26.5091 35.5655L25.9194 35.1759C25.2083 35.2406 24.5034 35.2361 23.803 35.158C23.1052 35.0781 22.5057 34.9399 22.0063 34.7397L22.596 35.1293C23.0963 35.3294 23.6949 35.4685 24.3927 35.5475C24.9178 35.6067 25.4456 35.6238 25.9769 35.6014C26.154 35.5942 26.3311 35.5816 26.5091 35.5655Z" fill="url(#paint8_linear_1014_833)"></path><path d="M27.2415 33.6366L27.8312 34.0261L28.374 30.0834C28.9797 30.1462 29.4278 30.2718 29.7183 30.4639L29.1285 30.0744C28.838 29.8823 28.39 29.7567 27.7843 29.6938L27.2415 33.6366Z" fill="url(#paint9_linear_1014_833)"></path><path d="M32.0525 30.5088C31.9161 29.6714 31.2715 29.1975 30.6215 28.7568C31.221 29.0808 31.4911 29.8249 31.4928 30.5142C31.4955 31.5768 30.9757 32.5973 30.2265 33.3413C29.3977 34.1625 28.2881 34.7262 27.1653 34.9874C27.1263 34.9963 27.0891 35.0071 27.0502 35.0161L26.5747 38.4544L25.4492 38.5675L26.0389 38.9571L27.1644 38.844L27.6399 35.4056C28.7548 35.166 29.8723 34.6239 30.7127 33.8359C31.5141 33.0846 32.0773 32.0292 32.0835 30.9234C32.0844 30.7762 32.0737 30.6389 32.0534 30.5106L32.0525 30.5088Z" fill="url(#paint10_linear_1014_833)"></path><path d="M28.7619 22.6201C29.3596 22.5788 29.9679 22.5968 30.5913 22.674C31.2121 22.7484 31.7151 22.8544 32.1012 22.9836L31.8399 24.863L31.6929 24.8791C31.2732 24.6234 30.803 24.4079 30.2858 24.2347C29.7687 24.0615 29.1984 23.9825 28.5724 23.9969L28.0092 28.0797C28.2182 28.1039 28.4165 28.1281 28.5954 28.156C28.7769 28.1865 28.9328 28.2098 29.0674 28.226C29.9334 28.3382 30.5781 28.6209 31.0005 29.0705C31.4202 29.5211 31.5743 30.1709 31.4565 31.019C31.3263 31.9497 30.8455 32.7853 30.0122 33.5276C29.1789 34.2734 28.1925 34.7679 27.0484 35.0138L26.5729 38.4522L25.4474 38.5653L25.9176 35.1754C25.2065 35.24 24.5016 35.2355 23.8012 35.1565C23.1034 35.0767 22.5039 34.9385 22.0045 34.7383L22.2701 32.8194L22.4198 32.8033C22.8864 33.1255 23.4293 33.3705 24.0509 33.5365C24.6699 33.7062 25.357 33.7825 26.1106 33.7708L26.6782 29.6665C26.5197 29.6458 26.324 29.6189 26.0947 29.5902C25.8644 29.5615 25.6723 29.5274 25.5147 29.495C24.5627 29.3353 23.9128 29.0122 23.5612 28.5302C23.2096 28.0483 23.0866 27.4245 23.1911 26.658C23.4222 24.977 24.8877 23.7115 26.3692 23.1155C26.7305 22.9701 27.1042 22.8642 27.4841 22.7835C27.5514 22.7691 27.593 22.761 27.6337 22.7529L27.9915 20.169L29.1178 20.0532L28.761 22.6192L28.7619 22.6201ZM26.9023 28.0527L27.4469 24.1181C27.423 24.1225 27.399 24.127 27.376 24.1324C26.3063 24.3559 25.2525 25.0542 25.0914 26.2227C25.0161 26.7846 25.0993 27.2073 25.3508 27.4828C25.6014 27.7611 26.1186 27.9495 26.9032 28.0527H26.9023ZM29.2657 30.1816C28.9894 29.9285 28.4953 29.7688 27.7842 29.6952L27.2414 33.638C27.9224 33.4935 28.4572 33.2466 28.8451 32.9002C29.2338 32.5511 29.472 32.07 29.5562 31.4561C29.6385 30.8602 29.542 30.4347 29.2657 30.1816Z" fill="url(#paint11_linear_1014_833)"></path><defs><radialGradient id="paint0_radial_1014_833" cx="0" cy="0" r="1" gradientUnits="userSpaceOnUse" gradientTransform="translate(23.4884 27.6112) rotate(4.96602) scale(22.0074 22.3009)"><stop offset="0.13" stop-color="#F6D246"></stop><stop offset="0.8" stop-color="#F6D246"></stop><stop offset="0.81" stop-color="#F2BE39"></stop><stop offset="0.83" stop-color="#EEAB2C"></stop><stop offset="0.84" stop-color="#E69A28"></stop><stop offset="0.86" stop-color="#E18D25"></stop><stop offset="0.88" stop-color="#DD8623"></stop><stop offset="0.93" stop-color="#DD8523"></stop><stop offset="1" stop-color="#EFAC2D"></stop></radialGradient><radialGradient id="paint1_radial_1014_833" cx="0" cy="0" r="1" gradientUnits="userSpaceOnUse" gradientTransform="translate(27.0156 28.8817) scale(18.487 18.7373)"><stop offset="0.55" stop-color="#EFAC2D"></stop><stop offset="0.72" stop-color="#F8D54E"></stop><stop offset="0.97" stop-color="#FFFDA6"></stop></radialGradient><linearGradient id="paint2_linear_1014_833" x1="17.4083" y1="20.3866" x2="32.5196" y2="36.7735" gradientUnits="userSpaceOnUse"><stop offset="0.13" stop-color="#DD8523"></stop><stop offset="0.26" stop-color="#E69A28"></stop><stop offset="0.39" stop-color="#ECA72B"></stop><stop offset="0.51" stop-color="#EFAC2D"></stop><stop offset="1" stop-color="#F8D54E"></stop></linearGradient><radialGradient id="paint3_radial_1014_833" cx="0" cy="0" r="1" gradientUnits="userSpaceOnUse" gradientTransform="translate(39.06 26.1358) rotate(-20.5116) scale(15.476 16.1996)"><stop stop-color="#F8D54E"></stop><stop offset="0.3" stop-color="#F6CF49"></stop><stop offset="0.66" stop-color="#F3C03D"></stop><stop offset="1" stop-color="#EFAC2D"></stop></radialGradient><linearGradient id="paint4_linear_1014_833" x1="28.6414" y1="19.7259" x2="34.1978" y2="36.2075" gradientUnits="userSpaceOnUse"><stop stop-color="#F8D54E"></stop><stop offset="0.15" stop-color="#E7B134"></stop><stop offset="0.31" stop-color="#D7911D"></stop><stop offset="0.47" stop-color="#CC790D"></stop><stop offset="0.62" stop-color="#C66B03"></stop><stop offset="0.75" stop-color="#C46700"></stop><stop offset="1" stop-color="#DD8523"></stop></linearGradient><linearGradient id="paint5_linear_1014_833" x1="24.9944" y1="20.9547" x2="30.5508" y2="37.4362" gradientUnits="userSpaceOnUse"><stop stop-color="#F8D54E"></stop><stop offset="0.15" stop-color="#E7B134"></stop><stop offset="0.31" stop-color="#D7911D"></stop><stop offset="0.47" stop-color="#CC790D"></stop><stop offset="0.62" stop-color="#C66B03"></stop><stop offset="0.75" stop-color="#C46700"></stop><stop offset="1" stop-color="#DD8523"></stop></linearGradient><linearGradient id="paint6_linear_1014_833" x1="23.0579" y1="21.6077" x2="28.6152" y2="38.0901" gradientUnits="userSpaceOnUse"><stop stop-color="#F8D54E"></stop><stop offset="0.15" stop-color="#E7B134"></stop><stop offset="0.31" stop-color="#D7911D"></stop><stop offset="0.47" stop-color="#CC790D"></stop><stop offset="0.62" stop-color="#C66B03"></stop><stop offset="0.75" stop-color="#C46700"></stop><stop offset="1" stop-color="#DD8523"></stop></linearGradient><linearGradient id="paint7_linear_1014_833" x1="28.4067" y1="19.8045" x2="33.9631" y2="36.286" gradientUnits="userSpaceOnUse"><stop stop-color="#F8D54E"></stop><stop offset="0.15" stop-color="#E7B134"></stop><stop offset="0.31" stop-color="#D7911D"></stop><stop offset="0.47" stop-color="#CC790D"></stop><stop offset="0.62" stop-color="#C66B03"></stop><stop offset="0.75" stop-color="#C46700"></stop><stop offset="1" stop-color="#DD8523"></stop></linearGradient><linearGradient id="paint8_linear_1014_833" x1="20.1357" y1="22.5913" x2="25.6931" y2="39.0746" gradientUnits="userSpaceOnUse"><stop stop-color="#F8D54E"></stop><stop offset="0.15" stop-color="#E7B134"></stop><stop offset="0.31" stop-color="#D7911D"></stop><stop offset="0.47" stop-color="#CC790D"></stop><stop offset="0.62" stop-color="#C66B03"></stop><stop offset="0.75" stop-color="#C46700"></stop><stop offset="1" stop-color="#DD8523"></stop></linearGradient><linearGradient id="paint9_linear_1014_833" x1="24.8536" y1="21.0025" x2="30.4109" y2="37.484" gradientUnits="userSpaceOnUse"><stop stop-color="#F8D54E"></stop><stop offset="0.15" stop-color="#E7B134"></stop><stop offset="0.31" stop-color="#D7911D"></stop><stop offset="0.47" stop-color="#CC790D"></stop><stop offset="0.62" stop-color="#C66B03"></stop><stop offset="0.75" stop-color="#C46700"></stop><stop offset="1" stop-color="#DD8523"></stop></linearGradient><linearGradient id="paint10_linear_1014_833" x1="24.3738" y1="21.1642" x2="29.9302" y2="37.6458" gradientUnits="userSpaceOnUse"><stop stop-color="#F8D54E"></stop><stop offset="0.15" stop-color="#E7B134"></stop><stop offset="0.31" stop-color="#D7911D"></stop><stop offset="0.47" stop-color="#CC790D"></stop><stop offset="0.62" stop-color="#C66B03"></stop><stop offset="0.75" stop-color="#C46700"></stop><stop offset="1" stop-color="#DD8523"></stop></linearGradient><linearGradient id="paint11_linear_1014_833" x1="25.1211" y1="22.2468" x2="29.6805" y2="37.4401" gradientUnits="userSpaceOnUse"><stop stop-color="#DD8523"></stop><stop offset="0.14" stop-color="#EFAC2D"></stop><stop offset="0.47" stop-color="#F8D54E"></stop><stop offset="0.97" stop-color="#FFFDA6"></stop></linearGradient></defs></svg>