<svg xmlns="http://www.w3.org/2000/svg" width="51" height="36" viewBox="0 0 51 36" fill="none"><g clip-path="url(#clip0_2058_5178)"><path d="M49.142 5.89941C48.5726 3.77222 46.9009 2.10056 44.7737 1.53114C40.9179 0.498047 25.4663 0.498047 25.4663 0.498047C25.4663 0.498047 10.0146 0.498047 6.1629 1.53114C4.03571 2.10056 2.36405 3.77222 1.79463 5.89941C0.761536 9.75114 0.761536 17.7922 0.761536 17.7922C0.761536 17.7922 0.761536 25.8332 1.79463 29.6849C2.36405 31.8121 4.03571 33.4838 6.1629 34.0532C10.0146 35.0863 25.4663 35.0863 25.4663 35.0863C25.4663 35.0863 40.9179 35.0863 44.7697 34.0532C46.8969 33.4838 48.5685 31.8121 49.1379 29.6849C50.171 25.8332 50.171 17.7922 50.171 17.7922C50.171 17.7922 50.171 9.75114 49.1379 5.89941H49.142Z" fill="#FF0000"></path><path d="M20.5245 25.2031L33.365 17.7924L20.5245 10.3818V25.2031Z" fill="white"></path></g><defs><clipPath id="clip0_2058_5178"><rect width="49.4095" height="34.5883" fill="white" transform="translate(0.761536 0.498047)"></rect></clipPath></defs></svg>